<svg id="Layer_1" data-name="Layer 1" xmlns="http://www.w3.org/2000/svg" viewBox="0 0 235.2 235.2"><defs><style>.cls-1{fill:#393939;}</style></defs><path class="cls-1" d="M137.65,100.3a97.27,97.27,0,0,0-6.51-35.77,18.69,18.69,0,0,0-2-3.52c-3.23-4.94-6.17-10.09-10.24-14.43a2.27,2.27,0,0,1-.18-3.07,2.24,2.24,0,0,1,3-.69,31.72,31.72,0,0,1,5.14,3.47c7.07,6.29,14.14,12.58,21,19.07,8.25,7.79,16.35,15.73,24.43,23.69a31.52,31.52,0,0,1,9.5,17.22,32.74,32.74,0,0,1-2.36,18.28,57,57,0,0,1-7.57,13C166,145.25,159.09,152,152.43,159c-9.9,10.42-19.89,20.76-29.8,31.17-3.15,3.3-6.86,3.34-10,0-9-9.46-18.05-18.87-27.05-28.34-6.11-6.42-12.32-12.76-18.19-19.4-5.38-6.08-10-12.73-12.54-20.61-3.86-12-1.77-22.8,6.93-31.95a171.34,171.34,0,0,1,24-21.22,26.7,26.7,0,0,1,12-5,11.55,11.55,0,0,1,10.75,4,30.41,30.41,0,0,1,5.5,9.74c2.11,5.51,4.38,11,5.51,16.81a53.79,53.79,0,0,1-.35,20.35c-.43,2.27-1,4.52-1.41,6.79a8.59,8.59,0,0,0,1.35,6.63c2.21,3.33,7.53,3.37,10.46.11,2.4-2.68,3.67-6,4.79-9.3A60.57,60.57,0,0,0,137.65,100.3Zm-41.31,41c5.21-.19,10.47-3.29,8.88-10.82-.31-1.48-.53-3-.72-4.49-.66-5.14-1.1-10.32-2-15.42a25.59,25.59,0,0,0-6-13.11c-4-4.51-9.43-5.25-14.56-2a22.89,22.89,0,0,0-8.07,9.27,13.76,13.76,0,0,0-1.7,4.06,27.76,27.76,0,0,0,1.21,14.17c3.35,9,9.76,14.67,18.89,17.38C93.64,140.66,95,140.94,96.34,141.27Z"/></svg>